<?xml version="1.0" encoding="UTF-8" standalone="no"?>
<!-- Created with Inkscape (http://www.inkscape.org/) -->

<svg
   width="11in"
   height="8.5in"
   viewBox="0 0 279.4 215.9"
   version="1.1"
   id="svg375"
   inkscape:version="1.2.2 (b0a8486541, 2022-12-01)"
   sodipodi:docname="pyventa.svg"
   inkscape:export-filename="pyventa.png"
   inkscape:export-xdpi="96"
   inkscape:export-ydpi="96"
   xmlns:inkscape="http://www.inkscape.org/namespaces/inkscape"
   xmlns:sodipodi="http://sodipodi.sourceforge.net/DTD/sodipodi-0.dtd"
   xmlns:xlink="http://www.w3.org/1999/xlink"
   xmlns="http://www.w3.org/2000/svg"
   xmlns:svg="http://www.w3.org/2000/svg">
  <sodipodi:namedview
     id="namedview377"
     pagecolor="#ffffff"
     bordercolor="#000000"
     borderopacity="0.25"
     inkscape:showpageshadow="2"
     inkscape:pageopacity="0.0"
     inkscape:pagecheckerboard="0"
     inkscape:deskcolor="#d1d1d1"
     inkscape:document-units="mm"
     showgrid="false"
     inkscape:zoom="0.69664703"
     inkscape:cx="320.10472"
     inkscape:cy="409.10244"
     inkscape:window-width="1549"
     inkscape:window-height="991"
     inkscape:window-x="26"
     inkscape:window-y="23"
     inkscape:window-maximized="0"
     inkscape:current-layer="layer1" />
  <defs
     id="defs372">
    <linearGradient
       inkscape:collect="always"
       xlink:href="#linearGradient460"
       id="linearGradient462"
       x1="35.727177"
       y1="62.557388"
       x2="35.884739"
       y2="62.590931"
       gradientUnits="userSpaceOnUse"
       gradientTransform="matrix(0.47618382,0,0,0.47618382,13.568086,31.61724)" />
    <linearGradient
       inkscape:collect="always"
       id="linearGradient460">
      <stop
         style="stop-color:#1a5fb4;stop-opacity:1;"
         offset="0"
         id="stop456" />
      <stop
         style="stop-color:#26a269;stop-opacity:1"
         offset="1"
         id="stop458" />
    </linearGradient>
    <linearGradient
       inkscape:collect="always"
       xlink:href="#linearGradient460"
       id="linearGradient502"
       gradientUnits="userSpaceOnUse"
       gradientTransform="matrix(0.47618382,0,0,0.47618382,13.568086,31.61724)"
       x1="35.727177"
       y1="62.557388"
       x2="35.884739"
       y2="62.590931" />
    <linearGradient
       inkscape:collect="always"
       xlink:href="#linearGradient460"
       id="linearGradient504"
       gradientUnits="userSpaceOnUse"
       gradientTransform="matrix(0.47618382,0,0,0.47618382,13.568086,31.61724)"
       x1="35.727177"
       y1="62.557388"
       x2="35.884739"
       y2="62.590931" />
    <linearGradient
       inkscape:collect="always"
       xlink:href="#linearGradient460"
       id="linearGradient506"
       gradientUnits="userSpaceOnUse"
       gradientTransform="matrix(0.47618382,0,0,0.47618382,13.568086,31.61724)"
       x1="35.727177"
       y1="62.557388"
       x2="35.884739"
       y2="62.590931" />
    <linearGradient
       inkscape:collect="always"
       xlink:href="#linearGradient460"
       id="linearGradient508"
       gradientUnits="userSpaceOnUse"
       gradientTransform="matrix(0.47618382,0,0,0.47618382,13.568086,31.61724)"
       x1="35.727177"
       y1="62.557388"
       x2="35.884739"
       y2="62.590931" />
    <linearGradient
       inkscape:collect="always"
       xlink:href="#linearGradient460"
       id="linearGradient510"
       gradientUnits="userSpaceOnUse"
       gradientTransform="matrix(0.47618382,0,0,0.47618382,13.568086,31.61724)"
       x1="35.727177"
       y1="62.557388"
       x2="35.884739"
       y2="62.590931" />
    <linearGradient
       inkscape:collect="always"
       xlink:href="#linearGradient460"
       id="linearGradient512"
       gradientUnits="userSpaceOnUse"
       gradientTransform="matrix(0.47618382,0,0,0.47618382,13.568086,31.61724)"
       x1="35.727177"
       y1="62.557388"
       x2="35.884739"
       y2="62.590931" />
  </defs>
  <g
     inkscape:label="Capa 1"
     inkscape:groupmode="layer"
     id="layer1"
     transform="translate(-126.02615,-132.24845)">
    <g
       aria-label="Pyventa"
       transform="matrix(2.68252,0,0,2.5460789,68.337099,-17.002587)"
       id="text205-3"
       style="font-weight:bold;font-size:4.63577px;font-family:Cantarell;-inkscape-font-specification:'Cantarell Bold';fill:url(#linearGradient462);stroke-width:0.338001;stop-color:#000000">
      <path
         d="m 25.72016,60.582464 v 1.043501 h -0.595316 v -3.006007 h 0.96654 q 0.291999,0 0.50251,0.07243 0.210511,0.07243 0.348588,0.201457 0.138077,0.126759 0.20372,0.303317 0.06564,0.176557 0.06564,0.387068 0,0.221829 -0.07017,0.405178 -0.06791,0.183348 -0.208247,0.314634 -0.138077,0.131287 -0.348588,0.205984 -0.210511,0.07243 -0.493456,0.07243 z m 0,-0.461766 h 0.371224 q 0.271627,0 0.398386,-0.142604 0.126759,-0.144868 0.126759,-0.39386 0,-0.233146 -0.129022,-0.36896 -0.129023,-0.138077 -0.396123,-0.138077 H 25.72016 Z"
         style="font-family:Carlito;-inkscape-font-specification:'Carlito Bold';fill:url(#linearGradient502)"
         id="path1220" />
      <path
         d="m 28.42285,62.234863 q -0.0249,0.05885 -0.06564,0.08828 -0.03848,0.03169 -0.117705,0.03169 h -0.43234 l 0.40065,-0.905424 -0.835254,-2.071156 h 0.504774 q 0.07017,0 0.104124,0.03169 0.03622,0.03169 0.05432,0.07243 l 0.375751,1.111408 q 0.0249,0.06112 0.04301,0.122232 0.01811,0.06112 0.03622,0.122232 0.01811,-0.06338 0.03848,-0.124495 0.02037,-0.06338 0.04527,-0.124496 l 0.350852,-1.106881 q 0.01584,-0.04527 0.05885,-0.0747 0.04301,-0.02943 0.09507,-0.02943 h 0.459503 z"
         style="font-family:Carlito;-inkscape-font-specification:'Carlito Bold';fill:url(#linearGradient504)"
         id="path1222" />
      <path
         d="m 30.95351,61.625965 h -0.522882 l -0.810355,-2.247714 h 0.475348 q 0.06338,0 0.104123,0.03169 0.04301,0.02943 0.05885,0.07243 l 0.328216,1.147625 q 0.07017,0.208247 0.110915,0.418758 0.02263,-0.104123 0.0498,-0.205983 0.02943,-0.104124 0.06791,-0.212775 l 0.339534,-1.147625 q 0.01585,-0.04527 0.05659,-0.0747 0.04074,-0.02943 0.09733,-0.02943 h 0.454975 z"
         style="font-family:Carlito;-inkscape-font-specification:'Carlito Bold';fill:#26a269"
         id="path1224" />
      <path
         d="m 30.528867,61.620657 -0.09975,0.003 -0.810355,-2.247714 h 0.475348 c 0.04225,0 0.07696,0.01056 0.104123,0.03169 0.02867,0.01962 0.04829,0.04376 0.05885,0.07243 l 0.328216,1.147625 c 0.04678,0.138831 0.110915,0.418758 0.110915,0.418758 z"
         style="font-weight:bold;font-size:4.63577px;font-family:Carlito;-inkscape-font-specification:'Carlito Bold';fill:#1a5fb4;stroke-width:0.338001;stop-color:#000000"
         id="path1224-8"
         sodipodi:nodetypes="cccsccccc" />
      <path
         d="m 32.965814,59.342034 q 0.212774,0 0.391596,0.07017 0.178821,0.06791 0.307844,0.199193 0.129023,0.129023 0.201456,0.319162 0.07243,0.190139 0.07243,0.434603 0,0.06564 -0.0068,0.108651 -0.0068,0.04074 -0.02264,0.06564 -0.01358,0.0249 -0.04074,0.03622 -0.0249,0.0091 -0.06338,0.0091 h -1.34454 q 0.01358,0.162976 0.05885,0.282945 0.04527,0.119968 0.119968,0.196929 0.0747,0.07696 0.176558,0.115442 0.10186,0.03622 0.226356,0.03622 0.124496,0 0.215038,-0.02943 0.09281,-0.03169 0.160713,-0.06564 0.07017,-0.03622 0.124495,-0.06564 0.05433,-0.03169 0.106388,-0.03169 0.06338,0 0.104123,0.05206 l 0.16524,0.212775 q -0.09281,0.108651 -0.205984,0.181085 -0.113178,0.07017 -0.23541,0.113177 -0.119968,0.04075 -0.244464,0.05885 -0.124496,0.01811 -0.239938,0.01811 -0.233146,0 -0.434603,-0.07696 -0.201457,-0.07696 -0.350852,-0.228619 -0.149395,-0.153922 -0.23541,-0.378014 -0.08375,-0.226356 -0.08375,-0.522883 0,-0.228619 0.0747,-0.430076 0.0747,-0.20372 0.212774,-0.353115 0.140341,-0.151659 0.339534,-0.239938 0.199194,-0.08828 0.450449,-0.08828 z m 0.01132,0.409704 q -0.219566,0 -0.344061,0.129023 -0.124496,0.126759 -0.160713,0.359906 h 0.950695 q 0,-0.09733 -0.02716,-0.185612 -0.0249,-0.08828 -0.08149,-0.156186 -0.05433,-0.06791 -0.138077,-0.106387 -0.08375,-0.04074 -0.199193,-0.04074 z"
         style="font-family:Carlito;-inkscape-font-specification:'Carlito Bold';fill:url(#linearGradient506)"
         id="path1226" />
      <path
         d="m 34.360166,61.625965 v -2.247714 h 0.353116 q 0.05432,0 0.09054,0.0249 0.03848,0.0249 0.0498,0.07696 l 0.03848,0.16524 q 0.06791,-0.06791 0.14034,-0.122233 0.07243,-0.05659 0.156186,-0.09507 0.08375,-0.04074 0.176558,-0.06338 0.09507,-0.02264 0.208247,-0.02264 0.183349,0 0.323689,0.06338 0.140341,0.06338 0.23541,0.176558 0.09507,0.113178 0.142605,0.271627 0.0498,0.156186 0.0498,0.341798 v 1.430569 h -0.574944 v -1.430569 q 0,-0.192403 -0.08828,-0.29879 -0.08828,-0.106388 -0.264836,-0.106388 -0.131287,0 -0.246728,0.05659 -0.113178,0.05659 -0.215039,0.15845 v 1.620708 z"
         style="font-family:Carlito;-inkscape-font-specification:'Carlito Bold';fill:url(#linearGradient508)"
         id="path1228" />
      <path
         d="m 37.483879,61.659919 q -0.291999,0 -0.448185,-0.167504 -0.156185,-0.169767 -0.156185,-0.46403 v -1.226849 h -0.203721 q -0.04527,0 -0.07696,-0.02943 -0.03169,-0.03169 -0.03169,-0.09054 v -0.22862 l 0.341798,-0.06564 0.119969,-0.593053 q 0.02037,-0.09281 0.126759,-0.09281 h 0.29879 v 0.692649 h 0.554572 v 0.407441 h -0.554572 v 1.188369 q 0,0.0996 0.04301,0.156186 0.04301,0.05432 0.122233,0.05432 0.04301,0 0.07017,-0.0091 0.02943,-0.01132 0.0498,-0.0249 0.02037,-0.01358 0.03622,-0.02264 0.01811,-0.01132 0.03848,-0.01132 0.0249,0 0.04074,0.01358 0.01584,0.01132 0.03395,0.03848 l 0.174294,0.278418 q -0.117705,0.09733 -0.269363,0.147131 -0.149395,0.0498 -0.310108,0.0498 z"
         style="font-family:Carlito;-inkscape-font-specification:'Carlito Bold';fill:url(#linearGradient510)"
         id="path1230" />
      <path
         d="m 39.871934,61.625965 q -0.08149,0 -0.124496,-0.02264 -0.04301,-0.0249 -0.06791,-0.09733 l -0.0498,-0.149394 q -0.08602,0.0747 -0.16524,0.131286 -0.07922,0.05659 -0.16524,0.09507 -0.08375,0.03848 -0.181085,0.05659 -0.09507,0.02037 -0.212774,0.02037 -0.144868,0 -0.264837,-0.03848 -0.119968,-0.04074 -0.208247,-0.117705 -0.08602,-0.07696 -0.13355,-0.190139 -0.04754,-0.115442 -0.04754,-0.264837 0,-0.124495 0.06338,-0.248991 0.06338,-0.124496 0.215038,-0.224092 0.153922,-0.101861 0.407441,-0.167504 0.255782,-0.06791 0.63606,-0.07696 V 60.21124 q 0,-0.217301 -0.09054,-0.319161 -0.09054,-0.101861 -0.260309,-0.101861 -0.126759,0 -0.210511,0.02943 -0.08149,0.02943 -0.144868,0.06564 -0.06338,0.03395 -0.117705,0.06338 -0.05433,0.02943 -0.122232,0.02943 -0.05885,0 -0.10186,-0.02943 -0.04074,-0.03169 -0.06564,-0.0747 l -0.104124,-0.181085 q 0.194666,-0.181084 0.430076,-0.269363 0.23541,-0.08828 0.509301,-0.08828 0.19693,0 0.353115,0.06564 0.156186,0.06338 0.264837,0.181085 0.108651,0.115441 0.16524,0.276154 0.05659,0.160713 0.05659,0.353115 v 1.414725 z m -0.787719,-0.357642 q 0.153922,0 0.264836,-0.05433 0.113178,-0.05659 0.224093,-0.17203 v -0.36217 q -0.224093,0.0091 -0.373488,0.03848 -0.147131,0.02716 -0.23541,0.07243 -0.08828,0.04301 -0.126759,0.10186 -0.03622,0.05885 -0.03622,0.126759 0,0.135814 0.0747,0.192403 0.07696,0.05659 0.208248,0.05659 z"
         style="font-family:Carlito;-inkscape-font-specification:'Carlito Bold';fill:url(#linearGradient512)"
         id="path1232" />
    </g>
    <g
       id="g1537"
       transform="matrix(3.1623058,0,0,3.1623058,80.362779,-41.089491)">
      <ellipse
         style="fill:#1a5fb4;stroke-width:0.115238;-inkscape-stroke:none;stop-color:#000000"
         id="path715-4"
         cx="15.688687"
         cy="56.189816"
         rx="1.2487893"
         ry="1.216678" />
      <ellipse
         style="fill:#26a269;stroke-width:0.231494;-inkscape-stroke:none;stop-color:#000000"
         id="path1218-9"
         cx="16.069246"
         cy="55.520782"
         rx="0.45113525"
         ry="0.45294392" />
      <path
         id="path715-8"
         style="fill:#ffffff;stroke-width:0.115238;-inkscape-stroke:none;stop-color:#000000"
         d="m 15.109169,55.897176 c -0.05755,0.0012 -0.114093,0.02746 -0.153479,0.07597 l -0.479041,0.589628 a 1.2487893,1.216678 0 0 0 0.272335,0.473356 l 0.606682,-0.745691 c 0.0701,-0.08619 0.05447,-0.212587 -0.03256,-0.281637 l -0.08578,-0.06821 c -0.03808,-0.03021 -0.0834,-0.04436 -0.128157,-0.04341 z" />
      <path
         id="path715-89"
         style="fill:#ffffff;stroke-width:0.115238;-inkscape-stroke:none;stop-color:#000000"
         d="m 16.871702,55.797107 -0.467155,0.574641 c -0.04622,0.05685 -0.03622,0.140486 0.02119,0.186036 l 0.05684,0.04496 c 0.05742,0.04554 0.139329,0.03519 0.185519,-0.0217 l 0.267684,-0.329179 a 1.2487893,1.216678 0 0 0 0.0026,-0.06201 1.2487893,1.216678 0 0 0 -0.06666,-0.39274 z" />
    </g>
  </g>
</svg>
